<?xml version="1.0" encoding="UTF-8"?>
<svg width="24px" height="24px" viewBox="0 0 24 24" version="1.1" xmlns="http://www.w3.org/2000/svg" xmlns:xlink="http://www.w3.org/1999/xlink">
    <title>01D44BCE-2D73-4422-9198-17D13374A915</title>
    <g id="Page-1" stroke="none" stroke-width="1" fill="none" fill-rule="evenodd">
        <g id="Home-—-Menu-—-Services_" transform="translate(-578.000000, -141.000000)" fill="#DE6D45">
            <g id="MENU-Services" transform="translate(184.000000, 55.000000)">
                <g id="UI/UX-Design" transform="translate(394.000000, 42.000000)">
                    <g id="UX" transform="translate(0.000000, 42.000000)">
                        <g id="ic_menu_ux" transform="translate(0.000000, 2.000000)">
                            <path d="M2.5638852,-1.03584031e-16 L21.4361148,1.03584031e-16 C22.3276335,-6.01853049e-17 22.6509198,0.0928256111 22.9768457,0.267132704 C23.3027716,0.441439796 23.5585602,0.697228371 23.7328673,1.0231543 C23.9071744,1.34908022 24,1.67236646 24,2.5638852 L24,21.4361148 C24,22.3276335 23.9071744,22.6509198 23.7328673,22.9768457 C23.5585602,23.3027716 23.3027716,23.5585602 22.9768457,23.7328673 C22.6509198,23.9071744 22.3276335,24 21.4361148,24 L2.5638852,24 C1.67236646,24 1.34908022,23.9071744 1.0231543,23.7328673 C0.697228371,23.5585602 0.441439796,23.3027716 0.267132704,22.9768457 C0.0928256111,22.6509198 4.01235366e-17,22.3276335 -6.90560205e-17,21.4361148 L6.90560205e-17,2.5638852 C-4.01235366e-17,1.67236646 0.0928256111,1.34908022 0.267132704,1.0231543 C0.441439796,0.697228371 0.697228371,0.441439796 1.0231543,0.267132704 C1.34908022,0.0928256111 1.67236646,6.01853049e-17 2.5638852,-1.03584031e-16 Z" id="Rectangle" opacity="0.100000001"></path>
                            <path d="M9.647,6.749 L10.7594036,6.75134915 L10.8469208,6.76030898 L10.9213925,6.77929285 C11.0400388,6.82094774 11.1298712,6.91146968 11.169176,7.03273181 L11.1865218,7.1090329 L11.1916025,7.1933623 L11.190751,15.0859352 L11.1821803,15.3256998 L11.1566789,15.5641563 C11.1110943,15.8771153 11.0192296,16.1697273 10.8816967,16.4370156 C10.677097,16.8346453 10.3988794,17.1692532 10.048777,17.4388483 C9.70435277,17.7040711 9.30842963,17.9062175 8.86184895,18.0445796 C8.42007949,18.1814511 7.9560699,18.25 7.47051876,18.25 C6.98535145,18.25 6.51862634,18.1815604 6.07106963,18.0448768 C5.61720465,17.9062667 5.22040163,17.7035357 4.88135364,17.4374321 C4.53815476,17.1680707 4.26360455,16.8339923 4.05934078,16.4370156 C3.91826228,16.1628365 3.82528614,15.862198 3.78072477,15.535537 L3.7563864,15.2856689 L3.74989125,15.0616476 L3.75217383,7.14771634 L3.76403266,7.06389851 L3.78487407,6.99614093 C3.82747301,6.8927395 3.91359909,6.81442027 4.0304989,6.77602657 L4.12374456,6.75494925 L4.21618569,6.74946721 L5.36610986,6.75160435 L5.44933874,6.76126162 L5.51913621,6.78031387 C5.62599158,6.82004922 5.70847937,6.90315036 5.74890502,7.01460345 L5.77106113,7.10327465 L5.77694657,7.19451339 L5.77583094,15.0473199 L5.7813858,15.1923682 L5.80216058,15.3409841 C5.85837659,15.6290511 6.00283744,15.863047 6.23997412,16.0594807 C6.5653648,16.3290201 6.96704932,16.4610754 7.45234851,16.4610754 C7.99215297,16.4610754 8.41355779,16.3262709 8.72007564,16.0489612 C8.94029238,15.8497289 9.07771487,15.6129102 9.13454175,15.3323181 L9.15624907,15.1883457 L9.16443635,15.0282897 L9.16731992,7.14353765 L9.18078149,7.05811095 L9.20287467,6.99096223 L9.24432204,6.91939272 C9.2936115,6.8531051 9.36592886,6.80326524 9.45678862,6.77529165 L9.55366304,6.7548075 L9.647,6.749 Z M18.4357167,6.74975167 L19.546108,6.75083564 L19.6298272,6.75725229 L19.7147064,6.77531043 C19.900419,6.83228394 19.9979922,6.99128727 19.9703324,7.21378018 L19.9507027,7.31290904 L19.9201826,7.4063251 L19.2928134,8.56968543 L17.9843329,10.9624578 L17.3060497,12.2242193 L18.3788209,14.2124702 L20.1787532,17.502772 L20.2166614,17.5897262 C20.3081682,17.8462105 20.2018745,18.0593902 19.9561121,18.1239771 L19.8691058,18.1398582 L19.7765968,18.144418 L18.6472664,18.1437989 L18.5467955,18.1400756 L18.4486384,18.1283537 L18.3572157,18.1075859 C18.274407,18.0834457 18.2047229,18.0382481 18.1436746,17.9685914 L18.0853385,17.8906558 L18.0356739,17.8038026 L16.1507183,14.1412006 L14.2340315,17.8742836 L14.1930003,17.9268903 L14.1382689,17.9886217 C14.0821062,18.0445452 14.0212885,18.0831526 13.9525704,18.105411 C13.9168588,18.1169783 13.8779902,18.1258597 13.8348726,18.1321756 L13.7668731,18.1397405 L13.6391818,18.1442312 L12.4906522,18.1430735 L12.4014194,18.1355402 L12.3197032,18.1175535 C12.115731,18.0548169 12.0246599,17.8766458 12.0800704,17.6488821 L12.1077813,17.5612746 L12.1461474,17.4769487 L14.9829315,12.2181987 L12.3666214,7.35062403 L12.3258309,7.26352259 L12.3012012,7.18195033 C12.2562496,6.97142034 12.3755147,6.81868846 12.6204794,6.76766934 L12.7181581,6.75339073 L12.8055438,6.74975167 L14.0116903,6.75032834 L14.0986002,6.75407927 L14.1965428,6.7678678 C14.2578822,6.78078124 14.3116212,6.80130654 14.3596272,6.83046197 C14.4043077,6.85759768 14.4444264,6.89146462 14.4809687,6.93314648 L14.5332229,7.00166593 L14.5886686,7.09723475 L16.1965975,10.3211436 L16.9502301,8.8560879 L17.3999834,7.96657237 L17.8433151,7.07619806 C17.8998642,6.96637035 17.9721246,6.88455747 18.0611959,6.83046197 C18.1101633,6.80072266 18.1644079,6.77994283 18.2287937,6.76695146 L18.3335862,6.75315934 L18.4357167,6.74975167 Z" id="Shape" fill-rule="nonzero"></path>
                        </g>
                    </g>
                </g>
            </g>
        </g>
    </g>
</svg>