<?xml version="1.0" encoding="UTF-8"?>
<svg width="24px" height="24px" viewBox="0 0 24 24" version="1.1" xmlns="http://www.w3.org/2000/svg" xmlns:xlink="http://www.w3.org/1999/xlink">
    <title>731EA1B7-DDEA-427C-AA33-FE400B0B9D8E</title>
    <g id="Page-1" stroke="none" stroke-width="1" fill="none" fill-rule="evenodd">
        <g id="Home-—-Menu-—-Solutions" transform="translate(-696.000000, -141.000000)" fill="#EB6269">
            <g id="Group-13" transform="translate(412.000000, 55.000000)">
                <g id="Social" transform="translate(284.000000, 84.000000)">
                    <g id="ic_menu_social" transform="translate(0.000000, 2.000000)">
                        <path d="M2.5638852,-1.03584031e-16 L21.4361148,1.03584031e-16 C22.3276335,-6.01853049e-17 22.6509198,0.0928256111 22.9768457,0.267132704 C23.3027716,0.441439796 23.5585602,0.697228371 23.7328673,1.0231543 C23.9071744,1.34908022 24,1.67236646 24,2.5638852 L24,21.4361148 C24,22.3276335 23.9071744,22.6509198 23.7328673,22.9768457 C23.5585602,23.3027716 23.3027716,23.5585602 22.9768457,23.7328673 C22.6509198,23.9071744 22.3276335,24 21.4361148,24 L2.5638852,24 C1.67236646,24 1.34908022,23.9071744 1.0231543,23.7328673 C0.697228371,23.5585602 0.441439796,23.3027716 0.267132704,22.9768457 C0.0928256111,22.6509198 4.01235366e-17,22.3276335 -6.90560205e-17,21.4361148 L6.90560205e-17,2.5638852 C-4.01235366e-17,1.67236646 0.0928256111,1.34908022 0.267132704,1.0231543 C0.441439796,0.697228371 0.697228371,0.441439796 1.0231543,0.267132704 C1.34908022,0.0928256111 1.67236646,6.01853049e-17 2.5638852,-1.03584031e-16 Z" id="Rectangle" opacity="0.100000001"></path>
                        <path d="M18.190625,8.6550625 C19.1884375,8.6550625 20,9.4669375 20,10.46475 L20,18.5738125 C20,18.9552813 19.5678437,19.1759375 19.2590625,18.955375 L16.681875,17.1169375 C16.465625,16.962875 16.21125,16.8813125 15.945625,16.8813125 L10.2771875,16.8813125 C9.279375,16.8813125 8.4678125,16.0694375 8.4678125,15.071625 L8.4678125,14.182875 L13.7228125,14.182875 C15.2375,14.182875 16.4696875,12.9506875 16.4696875,11.436 L16.4696875,8.6550625 L18.190625,8.6550625 Z M15.0634375,5.0194375 C15.2934375,5.0194375 15.484919,5.18536343 15.5246309,5.40396425 L15.5321875,5.4881875 L15.5321875,11.436 C15.5321875,12.3839219 14.7997523,13.1637531 13.8710093,13.2393664 L13.7228125,13.245375 L8.054375,13.245375 C7.841875,13.245375 7.636575,13.297575 7.452235,13.397335 L7.318125,13.481 L4.7409375,15.31975 C4.45792788,15.5219038 4.0660662,15.3529808 4.0074544,15.0237209 L4,14.9381875 L4,6.8288125 C4,5.88089063 4.73243516,5.10105938 5.66117816,5.02544605 L5.809375,5.0194375 L15.0634375,5.0194375 Z M12.7865625,9.760375 L7.370625,9.760375 C7.111875,9.760375 6.901875,9.970375 6.901875,10.229125 C6.901875,10.4594028 7.06780093,10.6506682 7.28640175,10.6903287 L7.370625,10.697875 L12.7865625,10.697875 C13.0453125,10.697875 13.2553125,10.4881875 13.2553125,10.229125 C13.2553125,9.999125 13.0893866,9.80764352 12.8707858,9.76793158 L12.7865625,9.760375 Z M12.7865625,7.572875 L7.370625,7.572875 C7.111875,7.572875 6.901875,7.782875 6.901875,8.041625 C6.901875,8.27190278 7.06780093,8.46316821 7.28640175,8.5028287 L7.370625,8.510375 L12.7865625,8.510375 C13.0453125,8.510375 13.2553125,8.3006875 13.2553125,8.041625 C13.2553125,7.811625 13.0893866,7.62014352 12.8707858,7.58043158 L12.7865625,7.572875 Z" id="Shape" fill-rule="nonzero"></path>
                    </g>
                </g>
            </g>
        </g>
    </g>
</svg>