<?xml version="1.0" encoding="UTF-8"?>
<svg width="24px" height="24px" viewBox="0 0 24 24" version="1.1" xmlns="http://www.w3.org/2000/svg" xmlns:xlink="http://www.w3.org/1999/xlink">
    <title>2C77F8E4-8477-4B39-9FF3-96FFDF393E91</title>
    <defs>
        <filter id="filter-1">
            <feColorMatrix in="SourceGraphic" type="matrix" values="0 0 0 0 1.000000 0 0 0 0 0.999937 0 0 0 0 1.000000 0 0 0 1.000000 0"></feColorMatrix>
        </filter>
    </defs>
    <g id="Page-1" stroke="none" stroke-width="1" fill="none" fill-rule="evenodd">
        <g id="Case-study-—-Fitness-and-Wellness-—-Desktop" transform="translate(-834.000000, -6957.000000)">
            <g id="footer" transform="translate(0.000000, 6780.000000)">
                <g id="icon/social/facebook" transform="translate(714.000000, 57.000000)" filter="url(#filter-1)">
                    <g transform="translate(120.000000, 120.000000)" id="ic_social_dribbble" fill="#141F42" fill-rule="nonzero">
                        <path d="M13.839447,13.1634827 C14.8578186,15.6999512 15.6210632,18.3650513 16.0977478,21.1271973 C14.8259277,21.6987915 13.4361572,22 12,22 C9.74047852,22 7.59539797,21.2555237 5.84475707,19.882843 C7.38482664,16.6199036 10.3004761,14.129364 13.839447,13.1634827 Z M17.1156616,12.7254028 C18.7955017,12.7254028 20.3984375,13.0604859 21.8620605,13.6659546 C21.5223999,15.7036133 20.5609436,17.5810547 19.0710754,19.0710754 C18.4974976,19.6445007 17.8663941,20.1391907 17.1911926,20.5508728 C16.717865,17.940857 15.989563,15.3860779 15.008728,12.904541 C15.6938477,12.7873535 16.397583,12.7254028 17.1156616,12.7254028 Z M12.4891968,10.167572 C12.8029175,10.7930298 13.1010742,11.4274902 13.3821411,12.0711059 C12.8496094,12.2227783 12.3253174,12.4071045 11.8109436,12.6246948 C10.1880188,13.3111877 8.73080445,14.2937012 7.47943117,15.5449219 C6.43847656,16.5860291 5.58413695,17.7701111 4.9309082,19.0729065 L4.92892457,19.0710754 L4.92892457,19.0710754 C3.04019164,17.1823425 2,14.6712036 2,12.0001526 C2,11.8651123 2.00335693,11.7305298 2.0086975,11.596405 C2.67733766,11.6510315 3.35086059,11.6789551 4.02880859,11.6789551 C6.94689941,11.6789551 9.78762816,11.1706848 12.4891968,10.167572 Z M19.8651428,5.82263184 C21.2489624,7.57739258 22,9.73086547 22,12.0001526 C22,12.1513672 21.9961853,12.3019714 21.9894714,12.4521179 C20.4359741,11.8562622 18.7988586,11.5535278 17.1156616,11.5535278 C16.2466736,11.5535278 15.3901977,11.6350098 14.5508118,11.7947693 C14.2502136,11.0948486 13.9317627,10.4051514 13.5945434,9.72628785 C15.858883,8.75762602 17.9415547,7.4648029 19.8080721,5.87150024 L19.8651428,5.82263184 Z M7.80123902,2.91903687 C9.36602781,4.84378051 10.754425,6.91729734 11.9411011,9.11502074 C9.4711609,10.0154419 6.80621336,10.5070801 4.02880859,10.5070801 C3.38702391,10.5070801 2.75134277,10.4803772 2.12268066,10.4289551 C2.44799805,8.35467531 3.41586305,6.44198609 4.92892457,4.92892457 C5.77517699,4.08267211 6.7467041,3.4074707 7.80123902,2.91903687 Z M12,2 C14.671051,2 17.1821899,3.04019164 19.0710754,4.92892457 L19.0794678,4.93746949 L19.0794678,4.93746949 C17.2862549,6.4735718 15.2566834,7.74111938 13.0533142,8.67663574 C11.883728,6.48440551 10.518982,4.41012574 8.96762086,2.46646117 C9.93548586,2.15975953 10.9555359,2 12,2 Z" id="Shape"></path>
                    </g>
                </g>
            </g>
        </g>
    </g>
</svg>