<?xml version="1.0" encoding="UTF-8"?>
<svg width="155px" height="30px" viewBox="0 0 155 30" version="1.1" xmlns="http://www.w3.org/2000/svg" xmlns:xlink="http://www.w3.org/1999/xlink">
    <title>C68521FD-4DA5-4FCA-8A84-CADF8D8A5198</title>
    <g id="Page-1" stroke="none" stroke-width="1" fill="none" fill-rule="evenodd">
        <g id="Home-—-Menu-—-Solutions" transform="translate(-200.000000, -23.000000)" fill="#FFFFFF">
            <g id="header" transform="translate(200.000000, 0.000000)">
                <g id="Mobindustry-logo-white" transform="translate(0.000000, 23.000000)">
                    <path d="M76.8545455,22.7079545 C77.0442629,22.7118058 77.2329467,22.7369636 77.4170455,22.7829545 C77.572742,22.8274969 77.7192427,22.8983243 77.8503668,22.9920073 L77.9761364,23.0931818 C77.9959499,23.1160034 78.024343,23.1295827 78.0545455,23.1306818 C78.0850695,23.130957 78.114009,23.1171164 78.1329545,23.0931818 C78.2582829,22.9853724 78.4012952,22.9000263 78.5556818,22.8409091 C78.7141054,22.7777068 78.8804121,22.7364169 79.05,22.7181818 L79.0909091,22.7181818 C79.1488636,22.7181818 79.1693182,22.7556818 79.1693182,22.8238636 L79.1693182,23.1647727 C79.1693182,23.2227273 79.1488636,23.2534091 79.1113636,23.2534091 L79.0909091,23.2534091 C79.0081765,23.2550466 78.9257281,23.2627054 78.8442147,23.2763009 L78.7227273,23.3011364 C78.6232125,23.3184458 78.5259944,23.3470394 78.4329545,23.3863636 C78.3954545,23.4068182 78.375,23.4170455 78.375,23.4443182 C78.3847838,23.4711134 78.3961679,23.4972969 78.4090909,23.5227273 C78.487838,23.6394532 78.5433931,23.7702391 78.5727273,23.9079545 C78.6122749,24.046508 78.6317909,24.1900081 78.6306818,24.3340909 C78.6364288,24.5781743 78.5838353,24.8201044 78.4772727,25.0397727 C78.386785,25.2415461 78.2542905,25.4216921 78.0886364,25.5681818 C77.9206142,25.7164808 77.7263758,25.8320988 77.5159091,25.9090909 C77.3026141,25.9855991 77.0777378,26.0248083 76.8511364,26.025 L76.6670455,26.025 C76.6083439,26.0282953 76.5495158,26.0213743 76.4931818,26.0045455 C76.4502229,26.0033522 76.4074258,26.0102923 76.3670455,26.025 C76.3332948,26.0367086 76.3012082,26.052752 76.2715909,26.0727273 L76.2003788,26.1265152 L76.2003788,26.1265152 L76.0465909,26.2568182 L76.0465909,26.2568182 C75.9721861,26.3298577 75.904842,26.4097575 75.8454545,26.4954545 C75.7901537,26.5792012 75.7411551,26.666943 75.6988636,26.7579545 C75.661497,26.8404709 75.6417582,26.9298759 75.6409091,27.0204545 L75.6435273,27.1354364 C75.6474545,27.1810909 75.6572727,27.2093182 75.6818182,27.2215909 C75.7227273,27.2420455 75.7568182,27.2522727 75.8352273,27.2215909 L76.1556818,27.1636364 L76.3286932,27.1359375 L76.3286932,27.1359375 L76.6114899,27.1030303 L76.6114899,27.1030303 L76.8375,27.075 L76.8375,27.075 L77.1375,27.075 C77.3933388,27.0767829 77.6486524,27.0984389 77.9011364,27.1397727 C78.1294538,27.1847191 78.3499695,27.2628184 78.5556818,27.3715909 C78.739408,27.4662877 78.8982431,27.6029326 79.0193182,27.7704545 C79.1398066,27.949335 79.2006606,28.1617275 79.1931818,28.3772727 L79.2068182,28.3909091 C79.2043214,28.6445594 79.1311242,28.8924856 78.9954545,29.1068182 C78.8509619,29.3324735 78.6560783,29.5215223 78.4261364,29.6590909 C78.402471,29.6741443 78.3756262,29.6834817 78.3477273,29.6863636 C78.3204545,29.6863636 78.2897727,29.6863636 78.2625,29.6488636 L78.1261291,29.4545455 C78.110398,29.4310265 78.1054928,29.4018907 78.1126626,29.374515 C78.1174425,29.3562645 78.1272835,29.3399629 78.1407936,29.3273349 L78.1636364,29.3113636 C78.3140117,29.2102157 78.4474732,29.0859584 78.5590909,28.9431818 C78.6813692,28.8012345 78.7469255,28.6191335 78.7431818,28.4318182 C78.749764,28.270707 78.6990337,28.1124769 78.6,27.9852273 C78.5003372,27.8624701 78.3745586,27.7634778 78.2318182,27.6954545 C78.072952,27.6227205 77.9039937,27.5744467 77.7306818,27.5522727 C77.5482209,27.52117 77.3635008,27.5052065 77.1784091,27.5045455 C76.9163991,27.506974 76.6546884,27.5229042 76.3943182,27.5522727 L75.5556818,27.6579545 L75.5556818,27.6579545 C75.5023891,27.6744874 75.4453381,27.6744874 75.3920455,27.6579545 C75.3372628,27.6213015 75.2964294,27.5672574 75.2761364,27.5045455 C75.2162757,27.3504838 75.1895586,27.1855351 75.1977273,27.0204545 C75.2167317,26.8233242 75.2834232,26.6337799 75.3920455,26.4681818 C75.5321613,26.2417852 75.7151291,26.0449211 75.9306818,25.8886364 C75.9520083,25.8887105 75.9698138,25.8723888 75.9715909,25.8511364 L75.9483586,25.8203283 L75.9483586,25.8203283 L75.9238636,25.7931818 C75.6752689,25.6496028 75.4729797,25.4378498 75.3409091,25.1829545 C75.1994731,24.9285664 75.1255338,24.6421984 75.1261291,24.3511364 C75.1269495,24.1347799 75.1734166,23.9210309 75.2625,23.7238636 C75.3485745,23.5224852 75.4710814,23.3387248 75.6238636,23.1818182 C75.7859184,23.0375525 75.9715795,22.922235 76.1727273,22.8409091 C76.3897121,22.7544324 76.6209673,22.7093376 76.8545455,22.7079545 Z M106.213636,22.707911 C106.402229,22.7118301 106.589781,22.7369895 106.772727,22.7829545 C106.980727,22.8438176 107.172774,22.9497343 107.335227,23.0931818 C107.354001,23.116269 107.382175,23.1296721 107.411932,23.1296721 C107.441689,23.1296721 107.469863,23.116269 107.488636,23.0931818 C107.614094,22.9837873 107.758521,22.8982868 107.914773,22.8409091 C108.071639,22.7765551 108.236986,22.7352184 108.405682,22.7181818 L108.436364,22.7181818 C108.484091,22.7181818 108.514773,22.7556818 108.514773,22.8238636 L108.514773,23.1647727 C108.514773,23.2227273 108.494318,23.2534091 108.446591,23.2534091 L108.415909,23.2534091 C108.333927,23.2550665 108.252232,23.2627325 108.171479,23.2763214 L108.051136,23.3011364 C107.951622,23.3184458 107.854403,23.3470394 107.761364,23.3863636 C107.720455,23.4068182 107.703409,23.4170455 107.703409,23.4443182 L107.723756,23.5004022 L107.723756,23.5004022 L107.751136,23.5534091 C107.825729,23.6723468 107.880962,23.802375 107.914773,23.9386364 C107.949305,24.0779734 107.965351,24.2212487 107.9625,24.3647727 C107.966532,24.6076018 107.917674,24.8483999 107.819318,25.0704545 C107.725388,25.2603946 107.594409,25.4296243 107.434091,25.5681818 C107.271052,25.7162714 107.081311,25.8319675 106.875,25.9090909 C106.656212,25.9871406 106.425471,26.0263666 106.193182,26.025 L106.022727,26.025 C105.962896,26.028554 105.902904,26.0216318 105.845455,26.0045455 C105.803553,26.0025047 105.761702,26.0094799 105.722727,26.025 C105.688145,26.0372908 105.654997,26.0532933 105.623864,26.0727273 C105.545765,26.1288067 105.471718,26.1903228 105.402273,26.2568182 C105.326926,26.3289796 105.259499,26.4089783 105.201136,26.4954545 C105.144636,26.5784659 105.095582,26.6663075 105.054545,26.7579545 C105.009368,26.8380326 104.985866,26.9285129 104.986364,27.0204545 C104.979014,27.0901106 104.993298,27.16034 105.027273,27.2215909 C105.079159,27.245677 105.139023,27.245677 105.190909,27.2215909 L105.497727,27.1636364 L105.732071,27.1282828 L105.732071,27.1282828 L106.179545,27.075 L106.179545,27.075 L106.479545,27.075 C106.73537,27.0770805 106.990661,27.0987346 107.243182,27.1397727 C107.469298,27.1848364 107.687548,27.2629467 107.890909,27.3715909 C108.076555,27.4634143 108.236025,27.6006051 108.354545,27.7704545 C108.475034,27.949335 108.535888,28.1617275 108.528409,28.3772727 L108.555706,28.3909091 C108.556794,28.6450861 108.483304,28.8940037 108.344318,29.1068182 C108.205173,29.3344335 108.011948,29.5241455 107.781818,29.6590909 C107.759389,29.6741078 107.733654,29.6834657 107.706818,29.6863636 C107.676136,29.6863636 107.648864,29.6863636 107.618182,29.6488636 L107.475,29.4545455 C107.461033,29.4294673 107.458248,29.399674 107.467326,29.3724419 C107.476403,29.3452098 107.496507,29.323046 107.522727,29.3113636 C107.672352,29.2092733 107.805678,29.0851426 107.918182,28.9431818 C108.03602,28.798683 108.100969,28.6182695 108.102273,28.4318182 C108.110063,28.2699831 108.057866,28.1109641 107.955682,27.9852273 C107.855784,27.8640978 107.731496,27.7653644 107.590909,27.6954545 C107.430359,27.6240671 107.260479,27.5758579 107.086364,27.5522727 C106.905049,27.5211712 106.721461,27.5052071 106.5375,27.5045455 C106.275486,27.5068705 106.01377,27.5228011 105.753409,27.5522727 L104.904545,27.6579545 C104.853563,27.6743806 104.79871,27.6743806 104.747727,27.6579545 C104.695172,27.6189986 104.654935,27.5657438 104.631818,27.5045455 C104.575076,27.3497228 104.549585,27.1851887 104.556818,27.0204545 C104.574253,26.8235043 104.639811,26.6338543 104.747727,26.4681818 C104.888845,26.2414687 105.072992,26.0445825 105.289773,25.8886364 C105.310227,25.8886364 105.320455,25.8886364 105.320455,25.8511364 C105.320455,25.8323864 105.320455,25.8247159 105.315341,25.8183239 L105.279545,25.7931818 C105.04032,25.6511995 104.843681,25.447495 104.710227,25.2034091 C104.566865,24.9499422 104.49389,24.6627498 104.498864,24.3715909 C104.500181,24.1556468 104.545416,23.942228 104.631818,23.7443182 C104.709896,23.5359162 104.828027,23.3448205 104.979545,23.1818182 C105.143339,23.0381809 105.330005,22.9229545 105.531818,22.8409091 C105.748073,22.7519727 105.979811,22.7067837 106.213636,22.707911 Z M33.9784091,22.6772727 C34.2508906,22.6834067 34.5200077,22.7388472 34.7727273,22.8409091 C34.9614857,22.91233 35.1350964,23.0176845 35.2851704,23.1513493 L35.3931818,23.2568182 C35.4131947,23.2716014 35.4250035,23.2950055 35.4250035,23.3198864 C35.4250035,23.3364736 35.4197551,23.3524045 35.4103265,23.3655623 L35.2397727,23.5568182 C35.1988636,23.6045455 35.1511364,23.6045455 35.1034091,23.5568182 C34.9508605,23.4135017 34.7743115,23.2981102 34.5818182,23.2159091 C34.390917,23.139782 34.187338,23.1004543 33.9818182,23.1 C33.8671435,23.099832 33.7528053,23.1124092 33.6409091,23.1375 C33.52025,23.1680704 33.4051901,23.2175461 33.3,23.2840909 C33.1990165,23.3515543 33.1102494,23.43571 33.0375,23.5329545 C32.9703163,23.6436874 32.9371253,23.7717099 32.9420455,23.9011364 C32.9407512,24.03676 32.9851864,24.1688647 33.0681818,24.2761364 C33.1453313,24.3783314 33.2399756,24.4660505 33.3477273,24.5352273 C33.4672764,24.612096 33.5940075,24.6771742 33.7261364,24.7295455 L33.9804293,24.8295455 C34.0219697,24.8454545 34.0625,24.8602273 34.1011364,24.8727273 C34.2852273,24.9409091 34.4693182,25.0090909 34.6329545,25.0875 C34.8030654,25.1583421 34.962537,25.2524189 35.1068182,25.3670455 C35.2428306,25.473766 35.3583397,25.6042912 35.4477273,25.7522727 C35.5355741,25.9263674 35.5778013,26.1199086 35.5704545,26.3147727 L35.5465909,26.3147727 C35.5484788,26.4710873 35.5158874,26.6258965 35.4511364,26.7681818 C35.387263,26.9240235 35.2880658,27.0628997 35.1613636,27.1738636 C35.0117963,27.2979403 34.8423751,27.3959049 34.6602273,27.4636364 C34.4322673,27.5368129 34.1939413,27.5725042 33.9545455,27.5693182 C33.6331409,27.572698 33.3154636,27.5002862 33.0272727,27.3579545 C32.7335072,27.2166331 32.5000884,26.9747483 32.3693182,26.6761364 C32.3386364,26.6386364 32.3488636,26.6011364 32.3965909,26.5806818 L32.6386364,26.4647727 C32.6693182,26.4443182 32.6863636,26.4443182 32.7068182,26.4647727 L32.7443182,26.5022727 C32.8642461,26.7073879 33.0389636,26.8750223 33.2488636,26.9863636 C33.4667191,27.1107047 33.71396,27.1742809 33.9647727,27.1704545 C34.2533419,27.1843429 34.538462,27.10288 34.7761364,26.9386364 C34.9797835,26.7954762 35.0986828,26.5602346 35.0931818,26.3113636 C35.0940628,26.1791621 35.061209,26.0489205 34.9977273,25.9329545 C34.9360508,25.8308557 34.8576918,25.7398209 34.7659091,25.6636364 C34.6961468,25.6088641 34.6219909,25.5600656 34.5442349,25.517717 L34.425,25.4590909 C34.3151134,25.3999997 34.2011941,25.3487361 34.0840909,25.3056818 L33.5693182,25.1113636 C33.3852963,25.04717 33.2100622,24.9601256 33.0477273,24.8522727 C32.8880506,24.7509311 32.7501437,24.6188187 32.6420455,24.4636364 C32.5373874,24.3000433 32.4839686,24.1089227 32.4886364,23.9147727 C32.4854482,23.7252217 32.5324965,23.5382049 32.625,23.3727273 C32.7080136,23.2220454 32.8246761,23.0925501 32.9659091,22.9943182 C33.1075244,22.8850078 33.2682009,22.8029357 33.4397727,22.7522727 C33.6151796,22.7034096 33.7963257,22.6781867 33.9784091,22.6772727 Z M39.4295455,23.1818182 C39.7575762,23.5226528 39.9292167,23.9844768 39.9034091,24.4568182 L39.9170455,25.8 C39.9476198,26.2772583 39.779868,26.7459765 39.4534091,27.0954545 C39.0984853,27.4197058 38.6276616,27.5868912 38.1477273,27.5590909 C37.6685663,27.6103214 37.1914826,27.445482 36.8461516,27.1093774 C36.5008206,26.7732727 36.3231249,26.3008269 36.3613636,25.8204545 L36.3613636,24.4193182 C36.3413826,23.9622267 36.5059975,23.5162922 36.8181818,23.1818182 C37.5753931,22.5538911 38.6723342,22.5538911 39.4295455,23.1818182 Z M61.1522727,22.725 C61.3924814,22.7218971 61.6313588,22.761133 61.8579545,22.8409091 C62.2917981,22.9795445 62.637613,23.3102693 62.7954545,23.7375 C62.8886192,23.9953789 62.9348041,24.2678698 62.9318182,24.5420455 L62.9625,24.9852273 C62.9647937,25.0347459 62.9462487,25.0829627 62.9113636,25.1181818 C62.8847087,25.1486425 62.846158,25.1660525 62.8056818,25.1659091 L60,25.1659091 C59.9147727,25.1659091 59.8738636,25.2170455 59.8738636,25.3125 L59.8738636,25.8340909 C59.8570302,26.1796858 59.9798832,26.5175316 60.2147727,26.7715909 C60.4656059,27.0354512 60.8194124,27.1762263 61.1829545,27.1568182 C61.4039178,27.1614577 61.6226976,27.11232 61.8204545,27.0136364 C62.0073247,26.925251 62.1673357,26.788771 62.2840909,26.6181818 C62.3318182,26.5613636 62.3795455,26.5511364 62.4272727,26.5875 L62.6318182,26.7238636 C62.6770051,26.7426915 62.6983733,26.7945858 62.6795455,26.8397727 C62.5231993,27.0755162 62.3033791,27.2622452 62.0454545,27.3784091 C61.7683092,27.5000328 61.4685566,27.5616099 61.1659091,27.5590909 C60.6889384,27.5876372 60.220997,27.4201634 59.8704545,27.0954545 C59.5780862,26.7998145 59.406993,26.4077567 59.3868033,25.9960642 L59.3863602,24.4568182 C59.3858998,24.2028284 59.4321222,23.9509163 59.5227273,23.7136364 C59.6182555,23.5138468 59.7500322,23.3335208 59.9113636,23.1818182 C60.0709538,23.0291821 60.2616813,22.9128849 60.4704545,22.8409091 C60.6891889,22.7626547 60.9199669,22.7234224 61.1522727,22.725 Z M55.2272727,23.0965909 C55.4905286,23.4455794 55.6199484,23.8773818 55.5920455,24.3136364 L55.5920455,27.4261364 C55.5920455,27.4840909 55.575,27.5011364 55.5170455,27.5011364 L55.2272727,27.5011364 C55.1761364,27.5011364 55.1590909,27.5011364 55.1590909,27.4363636 L55.1590909,27.0102273 C55.1590909,26.9625 55.1590909,26.9318182 55.1284091,26.9318182 C55.1079545,26.9318182 55.0935606,26.9409091 55.0801768,26.9550505 L55.0602273,26.9795455 C54.7638025,27.3742217 54.2879338,27.5922747 53.7954545,27.5590909 C53.3619006,27.5872624 52.9368006,27.4298638 52.6261364,27.1261364 C52.3488044,26.8160137 52.2032765,26.4100031 52.2204545,25.9943182 L52.2272727,25.9806818 C52.2243474,25.7635909 52.2601342,25.547716 52.3329545,25.3431818 C52.3987175,25.1502046 52.5084202,24.9751471 52.6534091,24.8318182 C52.7986313,24.6794487 52.9771554,24.5627663 53.175,24.4909091 C53.4016454,24.3964585 53.6454124,24.3500267 53.8909091,24.3545455 C54.1131698,24.3518801 54.3336172,24.3948093 54.5386364,24.4806818 C54.7317577,24.5502393 54.9041489,24.6675122 55.0397727,24.8215909 C55.0670455,24.8522727 55.0875,24.8625 55.1079545,24.8522727 C55.1270235,24.8307519 55.136825,24.8025729 55.1352273,24.7738636 L55.1352273,24.2761364 C55.1350708,24.1260084 55.1190731,23.976316 55.0875,23.8295455 C55.0507063,23.693914 54.9882112,23.5666092 54.9034091,23.4545455 C54.8080995,23.3358236 54.6852154,23.2421976 54.5454545,23.1818182 C54.3559839,23.1017927 54.1508652,23.0656638 53.9454545,23.0761364 C53.8523392,23.0711583 53.7590244,23.0711583 53.6659091,23.0761364 C53.5613345,23.088588 53.4576988,23.1079485 53.3556818,23.1340909 C53.250747,23.1492149 53.1470606,23.1720031 53.0454545,23.2022727 L52.9145751,23.2463791 L52.9145751,23.2463791 L52.7863636,23.2977273 C52.7352273,23.325 52.6977273,23.3181818 52.6772727,23.2602273 L52.5818182,23.0284091 C52.5729488,22.9883825 52.5926869,22.9474965 52.6295455,22.9295455 C52.8368368,22.8373764 53.0542347,22.7698686 53.2772727,22.7284091 C53.4323035,22.6984344 53.5889951,22.6782965 53.7464091,22.6680861 L53.9829545,22.6602273 C54.4410181,22.621252 54.8938786,22.7800634 55.2272727,23.0965909 Z M92.5090909,22.7079545 C92.7525976,22.7053956 92.9947408,22.7445998 93.225,22.8238636 C93.4355666,22.8919802 93.6271103,23.0087752 93.7840909,23.1647727 C93.9491557,23.3215942 94.0782576,23.5123392 94.1625,23.7238636 C94.2544328,23.9819733 94.29946,24.2544452 94.2954545,24.5284091 L94.2988636,24.9818182 C94.3024866,25.0308935 94.2851438,25.0792057 94.2511364,25.1147727 C94.2239662,25.1445309 94.1857443,25.1617924 94.1454545,25.1625 L91.3431818,25.1625 C91.2545455,25.1625 91.2170455,25.2136364 91.2170455,25.3090909 L91.2170455,25.8306818 C91.2047853,26.1787117 91.3339067,26.5168869 91.575,26.7681818 C91.8245154,27.0318914 92.1772438,27.1727335 92.5397727,27.1534091 C92.760736,27.1580486 92.9795158,27.1089109 93.1772727,27.0102273 C93.3610642,26.9171504 93.5200067,26.7815817 93.6409091,26.6147727 C93.6920455,26.5568182 93.7397727,26.5465909 93.7875,26.5840909 L93.9920455,26.7204545 C94.0335455,26.7427786 94.0535209,26.7912903 94.0397727,26.8363636 C93.881904,27.0702853 93.6640835,27.2574932 93.4090909,27.3784091 C93.1332494,27.5003562 92.834536,27.5620006 92.5329545,27.5590909 C92.053076,27.5865006 91.5823996,27.4193674 91.2272727,27.0954545 C90.9403994,26.7969028 90.7732364,26.4055572 90.7537426,25.9954389 L90.7534091,24.4568182 C90.7512585,24.2026793 90.7975379,23.9504568 90.8897727,23.7136364 C90.9804982,23.5094794 91.1075616,23.3235048 91.2647727,23.1647727 C91.4256171,23.0120623 91.6174679,22.8957891 91.8272727,22.8238636 C92.0459164,22.7452631 92.2767563,22.7060203 92.5090909,22.7079545 Z M88.0363636,22.725 C88.2765088,22.7227338 88.5152423,22.7619461 88.7420455,22.8409091 C88.952612,22.9090257 89.1441558,23.0258206 89.3011364,23.1818182 C89.4683939,23.3367696 89.597854,23.528044 89.6795455,23.7409091 C89.7727101,23.998788 89.818895,24.2712789 89.8159091,24.5454545 L89.8363636,24.9818182 C89.8386573,25.0313368 89.8201124,25.0795537 89.7852273,25.1147727 C89.7585723,25.1452334 89.7200216,25.1626434 89.6795455,25.1625 L86.8772727,25.1625 C86.7920455,25.1625 86.7511364,25.2136364 86.7511364,25.3090909 L86.7511364,25.8306818 C86.7388762,26.1787117 86.8679977,26.5168869 87.1090909,26.7681818 C87.3599241,27.0320421 87.7137306,27.1728172 88.0772727,27.1534091 C88.298236,27.1580486 88.5170158,27.1089109 88.7147727,27.0102273 C88.8979197,26.9161855 89.0566557,26.7807932 89.1784091,26.6147727 C89.2261364,26.5579545 89.2738636,26.5477273 89.3215909,26.5840909 L89.5261364,26.7204545 C89.5676364,26.7427786 89.5876118,26.7912903 89.5738636,26.8363636 C89.4198461,27.0723856 89.2024514,27.260243 88.9465909,27.3784091 C88.6694456,27.5000328 88.369693,27.5616099 88.0670455,27.5590909 C87.5872783,27.5857245 87.1168936,27.418695 86.7613636,27.0954545 C86.4744903,26.7969028 86.3073273,26.4055572 86.2878336,25.9954389 L86.2875,24.4568182 C86.2853494,24.2026793 86.3316288,23.9504568 86.4238636,23.7136364 C86.5142948,23.5152067 86.640227,23.3349735 86.7954545,23.1818182 C86.9550447,23.0291821 87.1457722,22.9128849 87.3545455,22.8409091 C87.5732798,22.7626547 87.8040578,22.7234224 88.0363636,22.725 Z M67.8,22.725 C68.0434865,22.7227087 68.2855846,22.7619056 68.5159091,22.8409091 C68.9445375,22.9844069 69.2853482,23.3139408 69.4431818,23.7375 C69.546438,23.9928679 69.5963257,24.26667 69.5897727,24.5420455 L69.6034091,24.9818182 C69.6069771,25.0329439 69.5853377,25.0825872 69.5454545,25.1147727 C69.5197148,25.1426028 69.4843924,25.159655 69.4465909,25.1625 L66.6443182,25.1625 C66.5590909,25.1625 66.5113636,25.2136364 66.5113636,25.3090909 L66.5113636,25.8306818 C66.5021637,26.178196 66.6308501,26.5152318 66.8693182,26.7681818 C67.1217273,27.0318072 67.4764281,27.172443 67.8409091,27.1534091 C68.0618723,27.1580486 68.2806521,27.1089109 68.4784091,27.0102273 C68.6615561,26.9161855 68.820292,26.7807932 68.9420455,26.6147727 C68.9525844,26.5889925 68.975055,26.5699881 69.0022269,26.5638745 C69.0203415,26.5597987 69.0390218,26.5617949 69.0555562,26.5691436 L69.2897727,26.7204545 C69.3285076,26.7450552 69.3442573,26.7937361 69.3272727,26.8363636 C69.1771534,27.0719028 68.9631485,27.259896 68.7102273,27.3784091 C68.4295878,27.5003638 68.126434,27.5619238 67.8204545,27.5590909 C67.3439959,27.5841009 66.8773906,27.4171053 66.525,27.0954545 C66.2356369,26.7984813 66.0678222,26.4063184 66.050515,25.9956341 L66.0511364,24.4568182 C66.0456881,24.2024041 66.0920846,23.9495434 66.1875,23.7136364 C66.2750272,23.5135635 66.4013217,23.3328117 66.5590909,23.1818182 C66.7219785,23.0335268 66.9117609,22.9178058 67.1181818,22.8409091 C67.3370575,22.763196 67.5677397,22.72398 67.8,22.725 Z M42.4754726,20.5147746 L42.6136364,20.5159091 C42.7729707,20.5117954 42.9321863,20.5278315 43.0875,20.5636364 C43.2146486,20.5907382 43.3399103,20.6260392 43.4625,20.6693182 C43.5204545,20.6897727 43.5409091,20.7272727 43.5204545,20.775 L43.4352273,21.0272727 C43.4352273,21.0681818 43.3840909,21.0852273 43.3261364,21.0579545 C43.154887,20.9808737 42.9714512,20.9356204 42.7847843,20.9239856 L42.6443182,20.9215909 C42.3727008,20.8905285 42.1047356,21.0044461 41.9386364,21.2215909 C41.8042717,21.4419449 41.7367671,21.6965673 41.7443182,21.9545455 L41.7443182,22.6363636 C41.7443182,22.7011364 41.775,22.7420455 41.8329545,22.7420455 L43.5818182,22.7420455 C43.6310083,22.7318549 43.6647362,22.6863955 43.6602273,22.6363636 L43.6602273,21.6852273 C43.6581228,21.6405881 43.6908555,21.601904 43.7352273,21.5965909 L44.0454545,21.5215909 C44.0931818,21.5215909 44.1238636,21.5215909 44.1238636,21.5965909 L44.1204545,22.6465909 C44.1204545,22.7045455 44.1375,22.7352273 44.1784091,22.7352273 L45.4056818,22.7352273 C45.4534091,22.7352273 45.4738636,22.7352273 45.4738636,22.8102273 L45.4738636,23.0420455 C45.4738636,23.1 45.4534091,23.1204545 45.4056818,23.1204545 L44.2056818,23.1204545 C44.1477273,23.1204545 44.1204545,23.1579545 44.1204545,23.2261364 L44.1204545,26.175 C44.0996736,26.4315391 44.1605277,26.6880812 44.2943182,26.9079545 C44.4387103,27.074309 44.6545766,27.1606555 44.8738636,27.1397727 C44.9880128,27.139002 45.1019529,27.1298867 45.2147727,27.1125 L45.3749505,27.0861052 L45.3749505,27.0861052 L45.5318182,27.0443182 C45.5829545,27.0238636 45.6102273,27.0443182 45.6306818,27.0920455 L45.6886364,27.3340909 L45.6886364,27.4125 L45.6834162,27.4174006 L45.6512429,27.4297585 C45.6445313,27.434233 45.6375,27.440625 45.6306818,27.45 C45.5011699,27.4866584 45.3689284,27.5128787 45.2352273,27.5284091 L44.7988636,27.5284091 C44.6092822,27.5337098 44.4208217,27.4976464 44.2465909,27.4227273 C44.11249,27.3577486 43.9956702,27.2619564 43.9056818,27.1431818 C43.8119208,27.0242952 43.7466167,26.8855241 43.7147727,26.7375 C43.6736004,26.5702369 43.6541223,26.3983712 43.6568182,26.2261364 L43.6568182,23.2397727 C43.6568182,23.1715909 43.6261364,23.1340909 43.5681818,23.1340909 L41.8090909,23.1340909 C41.7613636,23.1340909 41.7409091,23.1818182 41.7409091,23.2397727 L41.7409091,27.4363636 C41.7409091,27.4840909 41.7136364,27.5011364 41.6659091,27.5011364 L41.3556818,27.5011364 C41.3079545,27.5011364 41.2772727,27.5011364 41.2772727,27.4363636 L41.2772727,23.2397727 C41.2772727,23.1818182 41.2772727,23.1443182 41.2193182,23.1340909 L40.6806818,23.1340909 C40.6397727,23.1340909 40.6125,23.1136364 40.6125,23.0556818 L40.6125,22.8409091 C40.6125,22.7829545 40.6397727,22.7659091 40.6806818,22.7659091 L41.1920455,22.7659091 C41.2602273,22.7659091 41.2875,22.725 41.2875,22.6602273 L41.2875,21.9068182 C41.246459,21.5383403 41.3705062,21.1705799 41.626348,20.9022419 C41.8502096,20.6674462 42.1549134,20.5298139 42.4754726,20.5147746 L42.4754726,20.5147746 Z M101.8125,22.6977273 C102.076593,22.689925 102.339297,22.7387461 102.582955,22.8409091 C102.787448,22.9313293 102.96657,23.0706467 103.104545,23.2465909 C103.24088,23.4146472 103.339682,23.6099266 103.394318,23.8193182 C103.454142,24.0416202 103.483952,24.2709275 103.483002,24.5011364 L103.483002,27.4431818 C103.483002,27.5011364 103.4625,27.5181818 103.414773,27.5181818 L103.097727,27.5181818 C103.046591,27.5181818 103.029545,27.5181818 103.029545,27.4534091 L103.029545,24.4772727 C103.028393,24.3005614 103.00199,24.1249218 102.951136,23.9556818 C102.872629,23.6220457 102.639575,23.3459275 102.323864,23.2125 C102.127373,23.1310822 101.916042,23.0916029 101.703409,23.0965909 C101.518556,23.0949442 101.335299,23.1308997 101.164773,23.2022727 C101.008928,23.2708766 100.870339,23.3733627 100.759091,23.5022727 C100.640556,23.6246163 100.547811,23.7695297 100.486364,23.9284091 C100.419838,24.0964781 100.387391,24.2760962 100.390909,24.4568182 L100.390909,27.4261364 C100.390909,27.4840909 100.360227,27.5011364 100.3125,27.5011364 L100.005682,27.5011364 C99.9545455,27.5011364 99.9272727,27.5011364 99.9272727,27.4363636 L99.9272727,22.8409091 C99.9272727,22.7829545 99.9545455,22.7659091 100.005682,22.7659091 L100.302273,22.7659091 C100.343182,22.7659091 100.360227,22.7659091 100.360227,22.8409091 L100.360227,23.2397727 C100.360227,23.2875 100.360227,23.3147727 100.390909,23.3147727 C100.421591,23.3147727 100.438636,23.3147727 100.476136,23.2772727 C100.635813,23.0876085 100.837838,22.9381339 101.065909,22.8409091 C101.303266,22.7456715 101.55675,22.6970582 101.8125,22.6977273 Z M58.6227273,22.6738636 L58.7761364,22.7045455 C58.7997194,22.7085445 58.8205364,22.7222696 58.8335039,22.7423692 C58.8464713,22.7624688 58.8503956,22.7870926 58.8443182,22.8102273 L58.7761364,23.1272727 C58.7761364,23.1736364 58.7455909,23.2025455 58.6932273,23.2017818 L58.6042969,23.1865057 L58.6042969,23.1865057 L58.5512429,23.1839489 C58.5421875,23.1826705 58.5315341,23.1801136 58.5170455,23.175 L58.3806818,23.175 C58.0362709,23.1520223 57.702908,23.3014608 57.4909091,23.5738636 C57.3090091,23.8202192 57.2035346,24.1133099 57.1856704,24.416847 L57.1840909,27.4295455 C57.1840909,27.4875 57.1636364,27.5045455 57.1261364,27.5045455 L56.8159091,27.5045455 C56.7579545,27.5045455 56.7272727,27.5045455 56.7272727,27.4397727 L56.7272727,22.8409091 C56.7272727,22.7829545 56.7477273,22.7659091 56.8056818,22.7659091 L57.0852273,22.7522727 C57.1329545,22.7522727 57.1534091,22.7522727 57.1534091,22.8272727 L57.1534091,23.3488636 C57.1534091,23.43125 57.1747159,23.4449811 57.2153567,23.4018939 L57.2420455,23.3693182 C57.3811926,23.1759152 57.55449,23.0095497 57.7534091,22.8784091 C57.9632137,22.7419004 58.2088057,22.6707143 58.4590909,22.6738636 L58.6227273,22.6738636 Z M72.4534091,22.6977273 C72.7186852,22.6888969 72.9827174,22.7377487 73.2272727,22.8409091 C73.4309929,22.9326186 73.6098294,23.0717137 73.7488636,23.2465909 C73.8839091,23.4154792 73.9825662,23.6104721 74.0386364,23.8193182 C74.0973102,24.0417759 74.1259733,24.2710807 74.1238636,24.5011364 L74.1238636,27.4261364 C74.1238636,27.4840909 74.1068182,27.5011364 74.0659091,27.5011364 L73.7488636,27.5011364 C73.6909091,27.5011364 73.6704545,27.5011364 73.6704545,27.4363636 L73.6704545,24.4772727 C73.6709963,24.3004333 73.6445558,24.1245461 73.5920455,23.9556818 C73.5518217,23.7934012 73.4761448,23.6420474 73.3704545,23.5125 C73.2615263,23.3811131 73.1223057,23.27816 72.9647727,23.2125 C72.7697821,23.1300638 72.559341,23.0905334 72.3477273,23.0965909 C72.1617286,23.0944799 71.9772646,23.1304446 71.8056818,23.2022727 C71.6535324,23.2770931 71.5161096,23.3787167 71.4,23.5022727 C71.2813909,23.6239026 71.1896392,23.7690794 71.1306818,23.9284091 C71.0629912,24.0962404 71.0293837,24.2758667 71.0318182,24.4568182 L71.0318182,27.4261364 C71.0318182,27.4840909 71.0045455,27.5011364 70.9568182,27.5011364 L70.6465909,27.5011364 C70.5988636,27.5011364 70.5681818,27.5011364 70.5681818,27.4363636 L70.5681818,22.8409091 C70.5681818,22.7829545 70.5988636,22.7659091 70.6465909,22.7659091 L70.9465909,22.7659091 C70.9840909,22.7659091 71.0147727,22.7659091 71.0147727,22.8409091 L71.0147727,23.2397727 C71.0147727,23.2875 71.0147727,23.3147727 71.0318182,23.3147727 C71.0488636,23.3147727 71.0795455,23.3147727 71.1204545,23.2772727 C71.2832997,23.0865973 71.4888813,22.9370834 71.7204545,22.8409091 C71.9530666,22.7457365 72.2020811,22.6970919 72.4534091,22.6977273 Z M79.9602273,22.7659091 L80.2704545,22.7659091 C80.3181818,22.7659091 80.3386364,22.7659091 80.3386364,22.8409091 L80.3386364,27.4363636 C80.3386364,27.4840909 80.3181818,27.5011364 80.2704545,27.5011364 L79.9602273,27.5011364 C79.9125,27.5011364 79.8852273,27.5011364 79.8852273,27.4363636 L79.8852273,22.8409091 C79.8852273,22.7829545 79.9125,22.7659091 79.9602273,22.7659091 Z M84.3306818,22.8409091 C84.5297115,22.9355818 84.7045826,23.0743129 84.8420455,23.2465909 C84.9783798,23.4146472 85.0771818,23.6099266 85.1318182,23.8193182 C85.1916424,24.0416202 85.2214523,24.2709275 85.2204545,24.5011364 L85.2272727,27.4261364 C85.2272727,27.4840909 85.2068182,27.5011364 85.1693182,27.5011364 L84.8488636,27.5011364 C84.7909091,27.5011364 84.7704545,27.5011364 84.7704545,27.4363636 L84.7704545,24.4772727 C84.7704089,24.3007255 84.7451541,24.1250893 84.6954545,23.9556818 C84.658038,23.7917005 84.580756,23.6394782 84.4704545,23.5125 C84.3636699,23.3788675 84.2238248,23.2754526 84.0647727,23.2125 C83.8697821,23.1300638 83.659341,23.0905334 83.4477273,23.0965909 C83.2617286,23.0944799 83.0772646,23.1304446 82.9056818,23.2022727 C82.7535324,23.2770931 82.6161096,23.3787167 82.5,23.5022727 C82.382542,23.6248072 82.2909503,23.7697309 82.2306818,23.9284091 C82.1629912,24.0962404 82.1293837,24.2758667 82.1318182,24.4568182 L82.1318182,27.4261364 C82.1318182,27.4840909 82.1045455,27.5011364 82.0568182,27.5011364 L81.7465909,27.5011364 C81.6988636,27.5011364 81.6681818,27.5011364 81.6681818,27.4363636 L81.6681818,22.8409091 C81.6681818,22.7829545 81.6988636,22.7659091 81.7465909,22.7659091 L82.0465909,22.7659091 C82.0840909,22.7659091 82.1147727,22.7659091 82.1147727,22.8409091 L82.1147727,23.2397727 C82.1147727,23.2875 82.1147727,23.3147727 82.1420455,23.3147727 C82.1693182,23.3147727 82.1829545,23.3147727 82.2204545,23.2772727 C82.3813627,23.0874596 82.5845242,22.9380074 82.8136364,22.8409091 C83.3012769,22.649879 83.8430412,22.649879 84.3306818,22.8409091 Z M97.0193182,22.6704545 L97.1863636,22.6704545 L97.3397727,22.7011364 C97.3977273,22.7011364 97.4284091,22.7590909 97.4181818,22.8068182 L97.3397727,23.1238636 C97.3397727,23.1818182 97.2920455,23.2125 97.2136364,23.1920455 C97.1863636,23.1920455 97.1352273,23.1920455 97.0875,23.1715909 L96.9443182,23.1715909 C96.600125,23.149822 96.2673019,23.2990186 96.0545455,23.5704545 C95.8732278,23.8168203 95.7694807,24.110318 95.7545546,24.4136161 L95.7545455,27.4261364 C95.7545455,27.4840909 95.7272727,27.5011364 95.6863636,27.5011364 L95.3795455,27.5011364 C95.3215909,27.5011364 95.2909091,27.5011364 95.2909091,27.4363636 L95.2909091,22.8409091 C95.2909091,22.7829545 95.3215909,22.7659091 95.3693182,22.7659091 L95.6727273,22.7488636 C95.7102273,22.7488636 95.7306818,22.7488636 95.7306818,22.8238636 L95.7306818,23.3454545 C95.7306818,23.4278409 95.7496212,23.441572 95.7894729,23.3984848 L95.8159091,23.3659091 C95.9606773,23.1738792 96.1370567,23.007875 96.3375,22.875 C96.5400894,22.7420588 96.7770052,22.670984 97.0193182,22.6704545 Z M98.2159091,22.7659091 L98.5227273,22.7659091 C98.5704545,22.7659091 98.5977273,22.7659091 98.5977273,22.8409091 L98.5977273,27.4363636 C98.5977273,27.4840909 98.5704545,27.5011364 98.5227273,27.5011364 L98.2125,27.5011364 C98.1647727,27.5011364 98.1443182,27.5011364 98.1443182,27.4363636 L98.1477273,22.8409091 C98.1477273,22.7829545 98.1681818,22.7659091 98.2159091,22.7659091 Z M51.7670455,22.7386364 C51.7738811,22.7608496 51.7738811,22.7846049 51.7670455,22.8068182 L50.5397727,27.3681818 C50.5347521,27.3979803 50.5204324,27.4254263 50.4988636,27.4465909 L50.1715909,27.4465909 C50.1399968,27.4519313 50.1077305,27.4519313 50.0761364,27.4465909 C50.0556818,27.4465909 50.0454545,27.4159091 50.025,27.3784091 L49.1965909,24.7670455 L48.8352273,23.5227273 C48.8352273,23.4954545 48.8352273,23.475 48.8079545,23.475 C48.7943182,23.475 48.7892045,23.475 48.7862216,23.4809659 L48.7772727,23.5227273 L48.7772727,23.5227273 L48.4090909,24.8352273 L47.6147727,27.4159091 C47.5943182,27.4636364 47.5875,27.4840909 47.5670455,27.4943182 C47.5411622,27.4994619 47.5145197,27.4994619 47.4886364,27.4943182 L47.2295455,27.4943182 C47.2001977,27.4991514 47.1702569,27.4991514 47.1409091,27.4943182 C47.1137501,27.4750039 47.0934503,27.4475396 47.0829545,27.4159091 L45.8590909,22.8409091 C45.8386364,22.7829545 45.8590909,22.7556818 45.9068182,22.7556818 L46.1965909,22.7556818 C46.2257418,22.7488534 46.2560764,22.7488534 46.2852273,22.7556818 C46.3010215,22.7801112 46.3136239,22.8064616 46.3227273,22.8340909 L47.0045455,25.4829545 L47.3215909,26.8465909 L47.3539141,26.8912879 C47.3587121,26.8954545 47.3636364,26.8977273 47.3693182,26.8977273 C47.3863636,26.8977273 47.3897727,26.8772727 47.3897727,26.8465909 L47.775,25.5034091 L48.5590909,22.8579545 C48.5737603,22.8293746 48.5862945,22.7997482 48.5965909,22.7693182 C48.6254618,22.7603895 48.6563564,22.7603895 48.6852273,22.7693182 L48.9409091,22.7454545 C48.9667924,22.7403108 48.9934349,22.7403108 49.0193182,22.7454545 C49.0445441,22.7745702 49.0641901,22.8080841 49.0772727,22.8443182 L49.8886364,25.5102273 L50.2738636,26.8329545 C50.2943182,26.8636364 50.3045455,26.8840909 50.325,26.8840909 L50.3340909,26.8776515 L50.3340909,26.8776515 L50.325,26.8329545 L50.325,26.8329545 L50.6352273,25.5102273 L51.2727273,22.8443182 C51.2891856,22.777992 51.3511928,22.7332913 51.4193182,22.7386364 L51.7670455,22.7386364 Z M13.4965909,0.484090909 C20.7668424,0.715476254 26.5407479,6.67606736 26.5407479,13.95 C26.5407479,21.2239326 20.7668424,27.1845237 13.4965909,27.4159091 C12.7576181,27.4137591 12.0200143,27.3521971 11.2909091,27.2318182 C9.36136364,26.9113636 7.22386364,26.2943182 6.20113636,24.5045455 C5.46477273,23.2193182 5.49545455,21.6613636 6.20113636,20.0965909 L8.12386364,15.8659091 C8.27387478,15.4385429 8.67661962,15.1518432 9.12954545,15.15 L9.20454545,15.15 C9.78555039,15.1518712 10.2560833,15.6224042 10.2579545,16.2034091 C10.2614605,16.4257454 10.190677,16.6428946 10.0568182,16.8204545 L8.69318182,19.7795455 C8.11064583,21.0719478 8.66408696,22.5931548 9.94090909,23.2090909 C10.5601156,23.5003758 11.2701606,23.5316565 11.9125834,23.295952 C12.5550062,23.0602476 13.0763358,22.5771764 13.3602273,21.9545455 L13.9125,20.7681818 C13.936189,20.7134786 13.9647112,20.6609978 13.9977273,20.6113636 C14.1870461,20.3014539 14.5243404,20.1127759 14.8875,20.1136364 L14.9556818,20.1136364 C15.5018873,20.1137439 15.9561635,20.5338753 15.9988636,21.0784091 C16.134758,21.8229773 16.5943854,22.4687037 17.2534091,22.8409091 C18.2702967,23.4092318 19.5368875,23.2622413 20.3965909,22.4761364 C20.8882763,22.0035907 21.1664372,21.3512666 21.1670455,20.6693182 C21.1651675,19.2824813 20.0413823,18.1586961 18.6545455,18.1568182 L18.5113636,18.1568182 C18.2556773,18.1553611 18.0013793,18.1944839 17.7579545,18.2727273 C17.5866739,18.3516931 17.4243779,18.4488421 17.2738636,18.5625 C17.0806459,18.7452124 16.8238589,18.8454816 16.5579545,18.8420455 C16.2640826,18.8560114 15.9772842,18.7491802 15.7641636,18.5463615 C15.5510431,18.3435429 15.4301448,18.0623848 15.4295455,17.7681818 C15.4270488,17.5756806 15.4765128,17.3860687 15.5727273,17.2193182 L17.1579545,13.8102273 C17.7404905,12.5178249 17.1870494,10.9966179 15.9102273,10.3806818 C15.2913523,10.0845114 14.5794133,10.049492 13.9344596,10.283496 C13.289506,10.5175001 12.7656584,11.0008915 12.4806818,11.625 L11.8909091,12.8522727 C11.765948,13.1702978 11.4979441,13.41049 11.1681818,13.5 C10.6059394,13.6571635 10.0161601,13.3622739 9.80454545,12.8181818 C9.74608866,12.6271538 9.72763616,12.4266809 9.74970561,12.2291865 L9.77386364,12.0818182 C9.81018057,11.8943541 9.82050485,11.7027813 9.80454545,11.5125 C9.69799886,10.6082667 9.1412433,9.81931581 8.325,9.41590909 C7.03414571,8.81708494 5.50199967,9.37298286 4.89545455,10.6602273 L2.11363636,16.6806818 C1.92947968,16.9912835 1.59518246,17.1817552 1.23409091,17.1818182 C0.979143428,17.1806949 0.734630291,17.0804446 0.552272727,16.9022727 C-0.0996334311,16.2858871 -0.0625626715,14.2544095 0.159579235,12.4804616 L0.23529353,11.930779 C0.262190457,11.7517056 0.290550303,11.5774365 0.319785338,11.4099227 L0.409528274,10.9295978 L0.409528274,10.9295978 L0.500995954,10.5015095 L0.500995954,10.5015095 L0.590661991,10.1373631 C0.619858575,10.0279385 0.648167155,9.9311217 0.675,9.84886364 C2.45920977,4.27234306 7.64159503,0.487176266 13.4965909,0.484090909 Z M54.0253559,24.7580577 L53.9011364,24.7602273 C53.7202362,24.7543826 53.5401491,24.7869144 53.3727273,24.8556818 C53.221992,24.9173796 53.086049,25.0103321 52.9738636,25.1284091 C52.8653481,25.2410293 52.7827412,25.3759928 52.7318182,25.5238636 C52.6984942,25.6281904 52.6761403,25.7355533 52.6650261,25.8442121 L52.6560098,26.004 L52.6530098,25.981 L52.6585749,26.1347878 C52.6816195,26.3899153 52.7762124,26.6345386 52.9329545,26.8397727 C53.1743591,27.0881401 53.5154329,27.2135349 53.8602273,27.1806818 C54.1982684,27.2013752 54.5291774,27.0774392 54.7704545,26.8397727 C54.9983757,26.6047679 55.1213668,26.2874509 55.1113636,25.9602273 C55.1164302,25.6437459 55.0020039,25.3369861 54.7909091,25.1011364 C54.5886264,24.8909314 54.3136904,24.7690042 54.0253559,24.7580577 L54.0253559,24.7580577 Z M38.273838,23.0800123 L38.1375,23.0829545 C37.7797578,23.0682927 37.4322619,23.2043231 37.1795455,23.4579545 C36.927473,23.7158644 36.7919654,24.0657202 36.8045455,24.4261364 L36.8045455,25.7897727 C36.7887465,26.1526852 36.9104951,26.508191 37.1454545,26.7852273 C37.4104075,27.0429959 37.7719907,27.1767322 38.1409091,27.1534091 C38.504399,27.1811439 38.8614802,27.0463021 39.1159091,26.7852273 C39.318893,26.5452242 39.4373958,26.2468981 39.4559448,25.9358932 L39.4534091,24.4363636 C39.4642556,24.0793556 39.3428501,23.7309219 39.1125,23.4579545 C38.8921552,23.2255269 38.5903216,23.0909771 38.273838,23.0800123 L38.273838,23.0800123 Z M106.247727,23.0965909 C106.064703,23.0906608 105.88276,23.1268162 105.715909,23.2022727 C105.56423,23.2635887 105.428858,23.3592828 105.320455,23.4818182 C105.207667,23.5971259 105.115429,23.7308716 105.047727,23.8772727 C104.990875,24.0323161 104.962018,24.1962262 104.9625,24.3613636 C104.960812,24.5266024 104.989707,24.6907277 105.047727,24.8454545 C105.10184,24.9948609 105.183994,25.1325556 105.289773,25.2511364 C105.397734,25.3766571 105.533011,25.4757825 105.685227,25.5409091 C105.851202,25.6200034 106.03321,25.6596718 106.217045,25.6568182 C106.407527,25.660385 106.596343,25.6207571 106.769318,25.5409091 C106.92903,25.4787745 107.071613,25.3794337 107.185227,25.2511364 C107.302107,25.1340156 107.390719,24.9917687 107.444318,24.8352273 C107.502012,24.6767621 107.531996,24.5095475 107.532955,24.3409091 C107.532601,24.1766511 107.502573,24.0138084 107.444318,23.8602273 C107.388715,23.7106415 107.300164,23.575485 107.185227,23.4647727 C107.072685,23.3439783 106.933885,23.2506672 106.779545,23.1920455 C106.610839,23.1235915 106.429709,23.0910809 106.247727,23.0965909 Z M76.8784091,23.1 C76.6952537,23.092423 76.5129336,23.1286533 76.3465909,23.2056818 C76.1918733,23.2668165 76.0531303,23.3624209 75.9409091,23.4852273 C75.8307554,23.5933115 75.7427477,23.7218491 75.6818182,23.8636364 C75.6158309,24.016455 75.582171,24.1812723 75.5829283,24.3477273 C75.5823555,24.5131797 75.6124078,24.6773118 75.6715909,24.8318182 C75.7281259,24.9815755 75.8125753,25.1192396 75.9204545,25.2375 C76.0258828,25.3628086 76.1589051,25.4619919 76.3090909,25.5272727 C76.4751848,25.6060185 76.6571106,25.6456689 76.8409091,25.6431818 C77.0302559,25.6463511 77.2178749,25.6067297 77.3897727,25.5272727 C77.5494841,25.4651381 77.6920674,25.3657973 77.8056818,25.2375 C77.9235123,25.1205018 78.0132647,24.9782967 78.0681818,24.8215909 C78.1247806,24.6629387 78.1536117,24.4957183 78.1534091,24.3272727 L78.1636364,24.3409091 C78.1606977,24.1773811 78.1283645,24.0157155 78.0681818,23.8636364 C78.0112736,23.7138887 77.921583,23.5787704 77.8056818,23.4681818 C77.6950367,23.3498613 77.5601437,23.2568317 77.4102273,23.1954545 C77.2410958,23.1284827 77.0602741,23.0960275 76.8784091,23.1 Z M67.8409091,23.0965909 C67.6622694,23.0914022 67.4845422,23.1239275 67.3193182,23.1920455 C67.1642552,23.2580947 67.0231253,23.3529525 66.9034091,23.4715909 C66.7858742,23.5922072 66.691163,23.7331189 66.6238636,23.8875 C66.5627741,24.0511688 66.530479,24.2241778 66.5284091,24.3988636 L66.5284091,24.6613636 C66.5284091,24.7397727 66.5761364,24.7772727 66.6613636,24.7772727 L69.0477273,24.7772727 C69.1159091,24.7772727 69.1465909,24.7397727 69.1465909,24.6613636 L69.1397727,24.4090909 C69.1583386,24.0580273 69.027943,23.715421 68.7806581,23.46554 C68.5333733,23.2156589 68.1921474,23.0816924 67.8409091,23.0965909 Z M92.5227273,23.0965909 C92.3441572,23.0923013 92.1666138,23.1247929 92.0011364,23.1920455 C91.847337,23.2548904 91.7089469,23.3502516 91.5954545,23.4715909 C91.4735819,23.5893303 91.377263,23.7309073 91.3125,23.8875 C91.2465245,24.0497738 91.2140552,24.2237163 91.2170455,24.3988636 L91.2170455,24.6613636 C91.2170455,24.7397727 91.2545455,24.7772727 91.3431818,24.7772727 L93.7295455,24.7772727 C93.7977273,24.7772727 93.825,24.7397727 93.825,24.6613636 L93.8352273,24.4090909 C93.8552108,24.0552456 93.7233596,23.7096688 93.4727545,23.4590637 C93.2221494,23.2084585 92.8765726,23.0766074 92.5227273,23.0965909 Z M61.1659091,23.0965909 C60.9906575,23.0923321 60.8164587,23.1248492 60.6545455,23.1920455 C60.4976838,23.2547355 60.3559213,23.3500185 60.2386364,23.4715909 C60.1178408,23.589525 60.0226754,23.7311126 59.9590909,23.8875 C59.8920389,24.0495584 59.858412,24.2234909 59.8602273,24.3988636 L59.8602273,24.6613636 C59.8602273,24.7397727 59.9011364,24.7772727 59.9863636,24.7772727 L62.3727273,24.7772727 C62.4409091,24.7772727 62.4784091,24.7397727 62.4784091,24.6613636 L62.4886364,24.4090909 C62.5005531,24.0578053 62.368839,23.7168257 62.1238636,23.4647727 C61.8706853,23.2125525 61.5228404,23.0788612 61.1659091,23.0965909 Z M87.5284091,23.1818182 C87.3751103,23.2455857 87.2369034,23.3408207 87.1227273,23.4613636 C87.0019317,23.5792978 86.9067663,23.7208853 86.8431818,23.8772727 C86.7761298,24.0393311 86.7425029,24.2132636 86.7443182,24.3886364 L86.7443182,24.6511364 C86.7443182,24.7295455 86.7852273,24.7670455 86.8704545,24.7670455 L89.2568182,24.7670455 C89.325,24.7670455 89.3625,24.7295455 89.3625,24.6511364 L89.3795455,24.4090909 C89.3725706,23.9651806 89.1472398,23.553234 88.7772107,23.3079109 C88.4071815,23.0625877 87.9400104,23.015417 87.5284091,23.1818182 Z M146.761364,5.26363636 C146.848559,5.344692 146.911175,5.44865765 146.942045,5.56363636 L148.104545,10.3363636 L149.011364,14.2909091 C149.042045,14.4238636 149.1,14.5022727 149.175,14.5125 C149.25,14.5227273 149.321591,14.4443182 149.379545,14.2909091 L150.702273,10.0465909 L152.065909,5.65227273 C152.121464,5.53223714 152.188842,5.41803652 152.267045,5.31136364 C152.387152,5.18677754 152.558982,5.12613193 152.730682,5.14772727 L154.295455,5.14772727 C154.684091,5.14772727 154.817045,5.34204545 154.694318,5.7375 L149.669318,21.1602273 C149.633258,21.3093211 149.552349,21.443773 149.4375,21.5454545 C149.311692,21.6473281 149.158474,21.7075252 148.998927,21.7194903 L147.552273,21.7193182 C147.39606,21.735535 147.24258,21.6697579 147.146591,21.5454545 C147.059814,21.3763942 147.059814,21.1758785 147.146591,21.0068182 L148.336364,17.2943182 C148.369444,17.1974746 148.388948,17.0965148 148.394318,16.9943182 C148.394318,16.9090909 148.315909,16.8681818 148.152273,16.8681818 L147.893182,16.8681818 C147.599842,16.8877801 147.334294,16.7090362 147.23727,16.4396104 L144.245455,5.64204545 C144.119318,5.30113636 144.245455,5.1375 144.586364,5.1375 L146.335227,5.1375 C146.488009,5.12515808 146.639915,5.17012234 146.761364,5.26363636 Z M98.3863636,21.0375 C98.4755364,21.0342292 98.5624369,21.0660519 98.6284091,21.1261364 C98.6860319,21.1895276 98.7176762,21.2722898 98.7170455,21.3579545 C98.7203484,21.4480896 98.68426,21.5351995 98.6181818,21.5965909 C98.5594488,21.6623694 98.4744912,21.6986013 98.3863636,21.6954545 C98.3036357,21.6966399 98.2238617,21.6647303 98.1647727,21.6068182 C98.0983281,21.5416593 98.0634911,21.4508341 98.0693182,21.3579545 C98.0662315,21.2705347 98.101025,21.1860362 98.1647727,21.1261364 C98.2238617,21.0682243 98.3036357,21.0363147 98.3863636,21.0375 Z M80.1272727,21.0375 C80.2133796,21.0343165 80.2970734,21.066317 80.3590909,21.1261364 C80.4228386,21.1860362 80.4576321,21.2705347 80.4545455,21.3579545 C80.4550798,21.4469071 80.4208245,21.5325455 80.3590909,21.5965909 C80.298798,21.6601611 80.2148864,21.695947 80.1272727,21.6954545 C80.041608,21.6960853 79.9588458,21.664441 79.8954545,21.6068182 C79.8299355,21.5408205 79.7942222,21.4509213 79.7965909,21.3579545 C79.7948242,21.270089 79.8308205,21.185684 79.8954545,21.1261364 C79.9588458,21.0685136 80.041608,21.0368692 80.1272727,21.0375 Z M113.111891,5.18401576 L115.009091,5.18522727 C115.240909,5.18522727 115.35,5.29090909 115.35,5.50568182 L115.336364,16.5340909 C115.336364,16.7556818 115.230682,16.875 115.015909,16.875 L113.192045,16.875 C112.997727,16.875 112.892045,16.7693182 112.892045,16.5579545 L112.892045,16.2170455 C112.892045,16.0704545 112.861364,16.0022727 112.793182,16.0125 C112.699493,16.0333313 112.61548,16.0849393 112.554545,16.1590909 C112.197486,16.4657926 111.78246,16.6976509 111.334091,16.8409091 C110.870762,16.9808244 110.389669,17.0531605 109.905682,17.0556818 C108.542045,17.0556818 107.519318,16.6397727 106.793182,15.8181818 C106.049173,14.915384 105.666533,13.768677 105.719318,12.6 L105.719318,5.52613636 C105.719318,5.30454545 105.828409,5.18522727 106.039773,5.18522727 L107.894318,5.18522727 C108.115909,5.18522727 108.235227,5.29090909 108.235227,5.50568182 L108.235227,12.525 C108.215643,13.1279826 108.407375,13.7188551 108.777273,14.1954545 C109.145455,14.6318182 109.725,14.8534091 110.515909,14.8534091 C111.143533,14.8848776 111.755222,14.6496127 112.2,14.2056818 C112.626927,13.7629267 112.857887,13.1670982 112.840909,12.5522727 L112.840909,5.52613636 C112.828394,5.4324403 112.860263,5.33826424 112.927104,5.27142268 C112.977236,5.2212915 113.042742,5.19083224 113.111891,5.18401576 L113.111891,5.18401576 Z M55.8784091,4.97727273 C57.3579545,4.97727273 58.5375,5.3625 59.3965909,6.13636364 C60.2556818,6.91022727 60.7022727,8.02159091 60.7022727,9.45 L60.7125,12.525 C60.7125,13.975 60.2875,15.0863636 59.4375,15.8590909 C58.5852273,16.6397727 57.4159091,17.0454545 55.9090909,17.0454545 C54.4022727,17.0454545 53.2227273,16.6568182 52.3704545,15.8761364 C51.5181818,15.0954545 51.0852273,14.0113636 51.0852273,12.5897727 L51.0852273,9.48068182 C51.0785798,8.84854575 51.194345,8.2210982 51.4261364,7.63295455 C51.6490901,7.0920973 51.984992,6.60509776 52.4113636,6.20454545 C52.8497632,5.80096584 53.3660038,5.49122147 53.9284091,5.29431818 C54.5554728,5.07780986 55.2150541,4.97057023 55.8784091,4.97727273 Z M102.729545,0 C102.961364,0 103.070455,0.105681818 103.070455,0.340909091 L103.073864,16.5545455 C103.073864,16.7659091 102.960227,16.8715909 102.732955,16.8715909 L101.028409,16.8715909 C100.881818,16.8715909 100.796591,16.8443182 100.776136,16.7863636 C100.745026,16.7118077 100.722162,16.6340728 100.707955,16.5545455 L100.707955,16.3227273 C100.689773,16.0742424 100.612332,15.9981481 100.473237,16.1088103 L100.418182,16.1590909 C100.089393,16.4777273 99.6881117,16.7117108 99.2488636,16.8409091 C98.7595391,16.9835577 98.2516899,17.0524965 97.7420455,17.0454545 C97.0846614,17.0632229 96.4305208,16.9472406 95.8193182,16.7045455 C95.3046603,16.496646 94.8475051,16.1681022 94.4863636,15.7465909 C94.1249009,15.3391599 93.8572432,14.8573762 93.7022727,14.3352273 C93.5324098,13.7643994 93.4474097,13.1716959 93.449835,12.5761364 L93.449835,9.50795455 C93.4466183,8.92723564 93.5446825,8.35038778 93.7397727,7.80340909 C93.9253038,7.27396735 94.2151062,6.7870992 94.5920455,6.37159091 C94.9705231,5.94901979 95.4356279,5.61298156 95.9556818,5.38636364 C96.4553124,5.18274771 96.9860744,5.06843037 97.5238319,5.04788953 L97.7931818,5.04545455 C98.286614,5.02780822 98.7787523,5.10655035 99.2420455,5.27727273 C99.5481281,5.3944323 99.8379775,5.55024065 100.104545,5.74090909 C100.20167,5.82280818 100.319745,5.87594194 100.445455,5.89431818 C100.523864,5.89431818 100.561364,5.79886364 100.561364,5.60454545 L100.561364,0.310227273 C100.561364,0.0954545455 100.677273,0 100.902273,0 L102.729545,0 Z M131.931818,1.98068182 C131.989297,2.0482035 132.020735,2.13405408 132.020455,2.22272727 L132.020455,4.87159091 C132.020455,5.08295455 132.134091,5.18863636 132.361364,5.18863636 L134.611364,5.18863636 C134.843182,5.18863636 134.952273,5.29431818 134.952273,5.50909091 L134.952273,6.9375 C134.952273,7.15227273 134.836364,7.24772727 134.611364,7.24772727 L132.330682,7.24772727 C132.119318,7.24772727 132.013636,7.35340909 132.013636,7.54772727 L132.013636,13.2375 C131.990964,13.6178534 132.084922,13.9960667 132.282955,14.3215909 C132.516693,14.6144991 132.886217,14.764376 133.257955,14.7170455 C133.485998,14.7153253 133.713713,14.6993852 133.939773,14.6693182 L134.410555,14.6062364 C134.455664,14.5993909 134.498536,14.5924909 134.539336,14.5854273 L134.655682,14.5636364 C134.894318,14.5056818 135.061364,14.5159091 135.136364,14.5909091 C135.229138,14.6747966 135.290479,14.7878554 135.310227,14.9113636 L135.542045,16.1761364 C135.572727,16.3704545 135.5625,16.4965909 135.484091,16.5647727 C135.387855,16.6384969 135.280946,16.6971245 135.167045,16.7386364 C134.811552,16.8525952 134.44455,16.9269101 134.072727,16.9602273 C133.671998,17.0049379 133.269124,17.0276992 132.865909,17.0284091 C132.326462,17.0428295 131.789004,16.9572986 131.280682,16.7761364 C130.88821,16.6261474 130.537475,16.3841406 130.257955,16.0704545 C130.00228,15.7671385 129.817143,15.410837 129.715909,15.0272727 C129.60402,14.5976859 129.549005,14.1552705 129.552273,13.7113636 L129.552273,7.54772727 C129.561593,7.46379532 129.531506,7.38028035 129.4708,7.32157575 C129.410094,7.26287114 129.325618,7.23559981 129.242045,7.24772727 L128.219318,7.24772727 C127.977273,7.24772727 127.854545,7.15227273 127.854545,6.9375 L127.854545,5.52613636 C127.854545,5.30454545 127.960227,5.18522727 128.171591,5.18522727 L129.194318,5.18522727 C129.429545,5.18522727 129.535227,5.06931818 129.535227,4.84431818 L129.535227,2.72727273 C129.535846,2.6430093 129.559418,2.56050778 129.603409,2.48863636 C129.663592,2.40682131 129.752496,2.35079984 129.852273,2.33181818 L131.590909,1.93295455 C131.704823,1.88611052 131.835148,1.90435592 131.931818,1.98068182 Z M65.5943182,0 C65.8159091,0 65.9147727,0.0954545455 65.9147727,0.310227273 L65.9147727,5.69318182 C65.9147727,5.88409091 65.9625,5.98295455 66.0477273,5.98295455 C66.1753706,5.96217352 66.2939975,5.90404633 66.3886364,5.81590909 C66.709136,5.58072098 67.0615502,5.39246062 67.4352273,5.25681818 C67.8272401,5.11848231 68.2375828,5.04086706 68.6520643,5.02621657 L68.9011364,5.025 C69.5498664,5.00451039 70.1956557,5.12065954 70.7965909,5.36590909 C71.2953328,5.59066448 71.735238,5.92788621 72.0818182,6.35113636 C72.4225135,6.7716112 72.6700195,7.25965128 72.8079545,7.78295455 C72.9653719,8.33733028 73.0434208,8.91121936 73.0397727,9.4875 L73.0397727,12.5625 C73.0434511,13.1543627 72.945435,13.7424592 72.75,14.3011364 C72.5675806,14.828982 72.2773401,15.3131031 71.8977273,15.7227273 C71.5161066,16.1299072 71.0509241,16.4497201 70.5340909,16.6602273 C69.9654382,16.8975225 69.353551,17.0136301 68.7375,17.0011364 C68.2112082,17.0046009 67.6873171,16.9299234 67.1829545,16.7795455 C66.7526933,16.6510052 66.3712736,16.3955372 66.0886364,16.0465909 C66.0335888,15.973564 65.948238,15.9296335 65.8568182,15.9272727 C65.7988636,15.9272727 65.7715909,16.0261364 65.7715909,16.1795455 L65.7715909,16.5477273 C65.7735168,16.6288108 65.7534926,16.7089075 65.7136364,16.7795455 C65.6829545,16.8375 65.5977273,16.8647727 65.4715909,16.8647727 L63.75,16.8647727 C63.5227273,16.8647727 63.4090909,16.7590909 63.4090909,16.5477273 L63.4090909,0.340909091 C63.4090909,0.109090909 63.525,0 63.75,0 L65.5943182,0 Z M122.103409,5.03515695 C122.818877,5.0417129 123.529225,5.1566559 124.210227,5.37613636 C124.938551,5.5859486 125.601434,5.97781184 126.136364,6.51477273 C126.213441,6.56828682 126.259411,6.6561669 126.259411,6.75 C126.259411,6.8438331 126.213441,6.93171318 126.136364,6.98522727 L125.263636,8.12727273 C125.202953,8.1997973 125.118291,8.24817588 125.025,8.26363636 C124.905649,8.25651341 124.792433,8.20833639 124.704545,8.12727273 C124.325966,7.84896508 123.913576,7.61985974 123.477273,7.44545455 C123.068375,7.26608419 122.628223,7.16878745 122.181818,7.15909091 C121.971325,7.15760492 121.761204,7.17701829 121.554545,7.21704545 C121.3609,7.25941829 121.174728,7.33066946 121.002273,7.42840909 C120.840481,7.51783534 120.69889,7.63969614 120.586364,7.78636364 C120.47819,7.94196849 120.424276,8.12886944 120.432955,8.31818182 C120.432955,8.8875 120.906818,9.34090909 121.861364,9.68181818 L123.446591,10.2204545 C123.974505,10.3910914 124.478555,10.6282239 124.946591,10.9261364 C125.386592,11.1957471 125.765188,11.5546005 126.057955,11.9795455 C126.317283,12.39875 126.461519,12.8775226 126.478046,13.3677504 L126.477273,13.5784091 C126.503899,14.5483199 126.062431,15.4718488 125.290909,16.0602273 C124.496591,16.6875 123.443182,16.9977273 122.140909,16.9977273 C121.234599,17.0039951 120.338531,16.8059046 119.519318,16.4181818 C118.69943,16.0231237 118.05119,15.343381 117.695455,14.5056818 C117.664509,14.4377463 117.64493,14.3651899 117.6375,14.2909091 C117.640398,14.2085666 117.682092,14.1338521 117.747689,14.0878651 L119.164773,13.3772727 C119.311364,13.2988636 119.406818,13.2818182 119.454545,13.3193182 C119.535569,13.3794984 119.607849,13.4506314 119.669318,13.5306818 C119.947055,13.9709094 120.328695,14.3361599 120.780682,14.5943182 C121.237055,14.8406972 121.748436,14.9673695 122.267045,14.9625 C122.708079,14.9795569 123.143686,14.8605388 123.514773,14.6215909 C123.836229,14.4152123 124.026318,14.0557249 124.015909,13.6738636 C124.033866,13.3472185 123.894477,13.0316944 123.640909,12.825 C123.317348,12.5898906 122.962861,12.4006017 122.5875,12.2625 L120.882955,11.6829545 C120.488759,11.5527405 120.106637,11.3884851 119.740909,11.1920455 C119.404487,11.0140399 119.092759,10.7928504 118.813636,10.5340909 C118.556381,10.2768023 118.347387,9.97543479 118.196591,9.64431818 C118.036842,9.26863376 117.96121,8.86255082 117.975,8.45454545 C117.965877,7.93871951 118.082906,7.42847422 118.315909,6.96818182 C118.540884,6.55421179 118.853921,6.19462633 119.232955,5.91477273 C119.626982,5.61807594 120.073415,5.39832878 120.548864,5.26704545 C121.052303,5.11143753 121.576474,5.03327174 122.103409,5.03515695 Z M86.9147727,5.02159091 C88.2784091,5.02159091 89.2738636,5.4375 89.9113636,6.25909091 C90.5838077,7.19341549 90.9213304,8.32729961 90.8693182,9.47727273 L90.8590909,16.5340909 C90.8590909,16.7556818 90.7534091,16.875 90.5386364,16.875 L88.6943182,16.875 C88.4670455,16.875 88.3534091,16.7693182 88.3534091,16.5579545 L88.3534091,9.54545455 C88.3774951,8.94051528 88.1771623,8.34801569 87.7909091,7.88181818 C87.45,7.47892562 86.9400451,7.25916604 86.2456765,7.22253944 L86.0318182,7.21704545 C85.4112968,7.18591751 84.8070852,7.42164689 84.3715909,7.86477273 C83.9889857,8.2622079 83.7672204,8.78464871 83.7444761,9.33166247 L83.7443182,16.5238636 C83.7568336,16.6175597 83.7249643,16.7117358 83.6581228,16.7785773 C83.6079916,16.8287085 83.5424848,16.8591678 83.4733365,16.8659842 L81.5965909,16.8647727 C81.3477273,16.8647727 81.2318182,16.7590909 81.2318182,16.5477273 L81.2318182,5.52613636 C81.2162567,5.43180081 81.247126,5.33574872 81.3147328,5.26814193 C81.3823396,5.20053513 81.4783917,5.16966576 81.5727273,5.18522727 L83.3795455,5.18522727 C83.5738636,5.18522727 83.6693182,5.29090909 83.6693182,5.50568182 L83.6693182,6.02727273 C83.6693182,6.17045455 83.6965909,6.23863636 83.775,6.22840909 C83.8657635,6.20710396 83.9471315,6.15684729 84.0068182,6.08522727 C84.3799503,5.71829586 84.837771,5.44898958 85.3397727,5.30113636 C85.847125,5.12694104 86.3784628,5.03263434 86.9147727,5.02159091 Z M78.1319864,5.27142268 C78.1821176,5.32155385 78.2125769,5.38706067 78.2193933,5.45620892 L78.2284091,16.5545455 C78.2281392,16.6104954 78.2177444,16.6659345 78.1977273,16.7181818 C78.1704545,16.8238636 78.0647727,16.8715909 77.9079545,16.8715909 L76.0534091,16.8715909 C75.8215909,16.8715909 75.7125,16.7659091 75.7125,16.5545455 L75.7125,5.52613636 C75.7125,5.30454545 75.8181818,5.18522727 76.0227273,5.18522727 L77.8772727,5.18522727 C77.9709688,5.17271183 78.0651448,5.20458111 78.1319864,5.27142268 Z M36.9988636,5.00454545 C37.6428676,4.9996199 38.2798829,5.13820276 38.8636364,5.41022727 C39.4060299,5.65489133 39.890507,6.01156868 40.2852273,6.45681818 C40.4079545,6.57954545 40.5238636,6.58977273 40.6261364,6.48409091 C41.0296121,6.04242285 41.5223029,5.69149687 42.0715909,5.45454545 C42.6870931,5.16234303 43.3607232,5.01316542 44.0420455,5.01818182 C44.6764119,5.01134097 45.3061279,5.12709758 45.8965909,5.35909091 C46.4256407,5.5681556 46.9060452,5.8837837 47.3079545,6.28636364 C47.7002391,6.6892149 48.0033937,7.17008081 48.1977273,7.69772727 C48.4056495,8.27703755 48.5072793,8.88912624 48.4977273,9.50454545 L48.4977273,16.5238636 C48.4977273,16.7454545 48.3920455,16.8647727 48.1772727,16.8647727 L46.3022727,16.8647727 C46.2148902,16.8775484 46.1266093,16.8482821 46.0641636,16.7858364 C46.0017179,16.7233907 45.9724516,16.6351098 45.9852273,16.5477273 L45.9852273,9.48068182 C45.9882712,9.18278371 45.9457339,8.88617239 45.8590909,8.60113636 C45.7874152,8.33131042 45.6583393,8.0801358 45.4806818,7.86477273 C45.3002173,7.64664903 45.0730251,7.47188582 44.8159091,7.35340909 C44.4997802,7.22595677 44.1612565,7.16335306 43.8204545,7.16931818 C43.5337465,7.16731658 43.2511658,7.23766862 42.9988636,7.37386364 C42.7421877,7.50111706 42.511078,7.67444935 42.3170455,7.88522727 C42.1182195,8.0985505 41.963034,8.34870025 41.8602273,8.62159091 C41.7442064,8.89307438 41.6850353,9.1854491 41.6863636,9.48068182 L41.6863636,16.5238636 C41.7035785,16.6185217 41.6732552,16.7156019 41.605224,16.7836331 C41.5371928,16.8516643 41.4401126,16.8819876 41.3454545,16.8647727 L39.4977273,16.8647727 C39.2704545,16.8647727 39.1568182,16.7590909 39.1568182,16.5477273 L39.1568182,9.48068182 C39.1591209,9.18064932 39.1071483,8.88267316 39.0034091,8.60113636 C38.9022975,8.33048015 38.7520483,8.08083533 38.5602273,7.86477273 C38.2166813,7.46521197 37.7285757,7.22268848 37.2076564,7.18708882 L37.0329545,7.18295455 C36.4265997,7.14757278 35.8390782,7.4002702 35.4477273,7.86477273 C35.0644358,8.31499161 34.8583938,8.88948507 34.8681818,9.48068182 L34.8681818,16.5238636 C34.8837433,16.6181992 34.852874,16.7142513 34.7852672,16.7818581 C34.7176604,16.8494649 34.6216083,16.8803342 34.5272727,16.8647727 L32.7068182,16.8647727 C32.4852273,16.8647727 32.3658371,16.7590909 32.3658371,16.5477273 L32.3658371,9.48068182 C32.36351,8.8710461 32.4792807,8.26672292 32.7068182,7.70113636 C32.9227419,7.16874288 33.2452579,6.68612895 33.6545455,6.28295455 C34.0744201,5.87741049 34.5702767,5.55881108 35.1136364,5.34545455 C35.7134106,5.10859192 36.3541207,4.99273115 36.9988636,5.00454545 Z M142.840909,5.00454545 C142.988917,5.00218475 143.136929,5.00901607 143.284091,5.025 C143.369712,5.0339835 143.454593,5.04865208 143.538173,5.06888991 L143.6625,5.10340909 C143.826136,5.14090909 143.921591,5.19886364 143.959091,5.27727273 C143.990063,5.37720054 143.990063,5.4841631 143.959091,5.58409091 L143.532955,7.3125 C143.505682,7.48636364 143.447727,7.59204545 143.379545,7.6125 C143.296698,7.64297949 143.207058,7.65005637 143.120455,7.63295455 C143.027696,7.60627734 142.933341,7.58571282 142.837998,7.5713729 L142.694318,7.55454545 C142.563353,7.53531911 142.431227,7.52506794 142.298864,7.52386364 C141.887349,7.51183733 141.47807,7.58857708 141.098864,7.74886364 C140.800016,7.88806976 140.538344,8.09600584 140.335227,8.35568182 C140.136776,8.63054173 139.99536,8.94235085 139.919318,9.27272727 C139.840241,9.65512379 139.801393,10.0447451 139.803409,10.4352273 L139.803409,16.5238636 C139.817407,16.6178783 139.786023,16.7129645 139.718812,16.7801757 C139.651601,16.847387 139.556515,16.8787706 139.4625,16.8647727 L137.655682,16.8647727 C137.403409,16.8647727 137.2875,16.7590909 137.2875,16.5477273 L137.2875,5.52613636 C137.273502,5.43212166 137.304886,5.33703553 137.372097,5.26982428 C137.439308,5.20261303 137.534394,5.1712294 137.628409,5.18522727 L139.196591,5.18522727 C139.428409,5.18522727 139.5375,5.29090909 139.5375,5.50568182 L139.5375,6.52840909 C139.5375,6.62727273 139.564773,6.68522727 139.622727,6.70227273 C139.680682,6.71931818 139.748864,6.70227273 139.827273,6.61704545 C140.161824,6.17550646 140.574288,5.79885864 141.044318,5.50568182 C141.578505,5.16031115 142.205083,4.98553534 142.840909,5.00454545 Z M55.9056818,7.13863636 C55.2703969,7.0967641 54.6482937,7.33316329 54.2011364,7.78636364 C53.8335912,8.20313588 53.6227682,8.7323547 53.6005606,9.28341473 L53.6079545,12.525 C53.5837873,13.1320255 53.7840312,13.7266892 54.1704545,14.1954545 C54.5051653,14.6014463 55.0061044,14.8327573 55.6707107,14.8714586 L55.875,14.8772727 C56.5079929,14.9168886 57.1279,14.6850433 57.5795455,14.2397727 C57.9570177,13.8204023 58.172319,13.282504 58.190909,12.7225596 L58.1897727,9.49090909 C58.2201509,8.86973434 58.012939,8.26028781 57.6102273,7.78636364 C57.1667207,7.32759316 56.5419364,7.09017513 55.9056818,7.13863636 Z M96.5897727,7.89545455 C96.1840027,8.34179165 95.962318,8.92523657 95.9693182,9.52840909 L95.9693182,12.5727273 C95.9484877,13.1739228 96.1554797,13.7608058 96.5488636,14.2159091 C97.0068221,14.6762757 97.6434304,14.9129794 98.2909091,14.8636364 C98.9038073,14.8755893 99.4932075,14.6279422 99.9136364,14.1818182 C100.337411,13.7498663 100.572769,13.1676003 100.568182,12.5625 L100.578409,9.52840909 C100.589258,8.93537688 100.391367,8.35739032 100.019318,7.89545455 C99.0585962,6.98203299 97.5504947,6.98203299 96.5897727,7.89545455 Z M68.2261364,7.21363636 C67.6032909,7.19638348 67.0023683,7.44418659 66.5727273,7.89545455 C66.1401285,8.32375287 65.9001782,8.90947776 65.9079545,9.51818182 L65.9079545,12.5522727 C65.8956952,13.1469087 66.1088202,13.7241731 66.5045455,14.1681818 C66.9460276,14.6315886 67.5704398,14.8751093 68.2090909,14.8329545 C68.8343886,14.8805804 69.4514813,14.6670663 69.9136364,14.2431818 C70.34087,13.7824936 70.5581002,13.1653621 70.5136364,12.5386364 L70.5170455,9.51818182 C70.5326632,8.9320623 70.3447331,8.35863442 69.9852273,7.89545455 C69.6170455,7.44204545 69.0375,7.21363636 68.2261364,7.21363636 Z M76.9943182,0.289772727 C77.4046344,0.283846027 77.80058,0.440753269 78.0954545,0.726136364 C78.3951176,0.989329777 78.564536,1.37052113 78.5590909,1.76931818 L78.5454545,1.77954545 C78.5508996,2.1783425 78.3814813,2.55953386 78.0818182,2.82272727 C77.8000796,3.10982559 77.4135908,3.26983689 77.0113636,3.26590909 C76.6057015,3.27152928 76.2135819,3.12005628 75.9170455,2.84318182 C75.6247248,2.56783279 75.4635425,2.18099525 75.4738636,1.77954545 C75.4685025,1.3850035 75.629346,1.0064027 75.9170455,0.736363636 C76.2014227,0.448619851 76.5897662,0.287629373 76.9943182,0.289772727 Z" id="Shape"></path>
                </g>
            </g>
        </g>
    </g>
</svg>